<?xml version="1.0" encoding="UTF-8" standalone="no"?>
<svg width="78px" height="55px" viewBox="0 0 78 55" version="1.1" xmlns="http://www.w3.org/2000/svg" xmlns:xlink="http://www.w3.org/1999/xlink">
    <!-- Generator: Sketch 47.1 (45422) - http://www.bohemiancoding.com/sketch -->
    <title>Group 25</title>
    <desc>Created with Sketch.</desc>
    <defs></defs>
    <g id="Page-1" stroke="none" stroke-width="1" fill="none" fill-rule="evenodd">
        <g id="Forge" transform="translate(-904.000000, -870.000000)">
            <g id="Group-25" transform="translate(904.000000, 870.000000)">
                <g id="Group-13" transform="translate(0.000000, 8.674699)">
                    <path d="M0.441217997,37.7784508 C3.85865275,34.8302201 6.82704879,27.4133785 9.34640609,15.527926 C13.1254421,-2.30025283 31.5700815,-3.71862965 35.4736179,5.90464816 C39.3771544,15.527926 39.0270398,30.6091747 35.4736179,37.7784508 C33.10467,42.5579681 21.4272034,42.5579681 0.441217997,37.7784508 Z" id="Path-3" fill="#FFFFFF"></path>
                    <path d="M17.5,39.8253012 L17.5,44.8253012" id="Line-2" stroke="#FFFFFF" stroke-width="2" stroke-linecap="square"></path>
                    <path d="M23.5,39.8253012 L23.5,44.8253012" id="Line-2-Copy" stroke="#FFFFFF" stroke-width="2" stroke-linecap="square"></path>
                    <ellipse id="Oval" fill="#4E4E4E" cx="28.9156627" cy="11.7129387" rx="3.61445783" ry="3.60398114"></ellipse>
                    <ellipse id="Oval-Copy" fill="#FFFFFF" cx="31.626506" cy="10.8119434" rx="1.80722892" ry="1.80199057"></ellipse>
                    <polyline id="Path-4" fill="#FFFFFF" points="36.2409639 7.0451568 44.373494 6.20796228 39.1783996 10.3130403"></polyline>
                </g>
                <g id="Group-24" transform="translate(48.120482, 0.000000)">
                    <rect id="Rectangle-5" fill="#FFFFFF" x="0" y="0" width="29.8795181" height="19.2771084"></rect>
                    <path d="M8.06097977,15.1920181 L7.57200683,15.1920181 C6.9778089,15.1920181 6.54970396,15.0372813 6.28767918,14.7278033 C6.0256544,14.4183252 5.89464397,13.8443018 5.89464397,13.005716 L5.89464397,12.4306887 C5.89464397,11.683948 5.79354931,11.1638329 5.59135696,10.8703279 C5.38916461,10.5768229 5.06318591,10.4300726 4.61341108,10.4300726 L4.61341108,9.45372399 C5.06318591,9.45372399 5.38916461,9.30697367 5.59135696,9.01346865 C5.79354931,8.71996362 5.89464397,8.19984857 5.89464397,7.45310789 L5.89464397,6.87209064 C5.89464397,6.03749811 6.0256544,5.46547138 6.28767918,5.15599329 C6.54970396,4.8465152 6.9778089,4.69177848 7.57200683,4.69177848 L8.06097977,4.69177848 L8.06097977,5.47645126 L7.87529384,5.47645126 C7.49154101,5.47645126 7.22436227,5.55631538 7.0737496,5.716046 C6.92313693,5.87577663 6.84783172,6.25712778 6.84783172,6.8601109 L6.84783172,7.24346249 C6.84783172,8.07006848 6.74880022,8.67903236 6.55073424,9.0703724 C6.35266826,9.46171243 6.01637378,9.75121985 5.54184071,9.93890334 C6.01637378,10.1305801 6.35266826,10.4220841 6.55073424,10.8134242 C6.74880022,11.2047642 6.84783172,11.8137281 6.84783172,12.6403341 L6.84783172,13.0236857 C6.84783172,13.6266688 6.92313693,14.0080199 7.0737496,14.1677505 C7.22436227,14.3274812 7.49154101,14.4073453 7.87529384,14.4073453 L8.06097977,14.4073453 L8.06097977,15.1920181 Z M17.3989186,11.7718031 C17.6176165,11.7718031 17.8012374,11.8436808 17.9497869,11.9874384 C18.0983363,12.131196 18.17261,12.3088936 18.17261,12.5205367 C18.17261,12.736173 18.0973048,12.9208588 17.9466921,13.0745995 C17.7960794,13.2283403 17.6134901,13.3052095 17.3989186,13.3052095 C17.1884735,13.3052095 17.0089789,13.2283403 16.8604294,13.0745995 C16.7118799,12.9208588 16.6376063,12.736173 16.6376063,12.5205367 C16.6376063,12.3049003 16.7108484,12.1262044 16.8573347,11.9844435 C17.003821,11.8426825 17.1843471,11.7718031 17.3989186,11.7718031 Z M14.87359,11.7718031 C15.0922879,11.7718031 15.2759088,11.8436808 15.4244583,11.9874384 C15.5730078,12.131196 15.6472814,12.3088936 15.6472814,12.5205367 C15.6472814,12.736173 15.5719762,12.9208588 15.4213635,13.0745995 C15.2707508,13.2283403 15.0881615,13.3052095 14.87359,13.3052095 C14.6631449,13.3052095 14.4846819,13.2283403 14.3381956,13.0745995 C14.1917093,12.9208588 14.1184673,12.736173 14.1184673,12.5205367 C14.1184673,12.3049003 14.1906777,12.1262044 14.3351008,11.9844435 C14.4795239,11.8426825 14.6590185,11.7718031 14.87359,11.7718031 Z M12.3173138,11.7718031 C12.5318853,11.7718031 12.7144746,11.8436808 12.8650873,11.9874384 C13.0156999,12.131196 13.0910051,12.3088936 13.0910051,12.5205367 C13.0910051,12.736173 13.0156999,12.9208588 12.8650873,13.0745995 C12.7144746,13.2283403 12.5318853,13.3052095 12.3173138,13.3052095 C12.1027423,13.3052095 11.9222161,13.2283403 11.7757298,13.0745995 C11.6292435,12.9208588 11.5560015,12.736173 11.5560015,12.5205367 C11.5560015,12.3049003 11.6292435,12.1262044 11.7757298,11.9844435 C11.9222161,11.8426825 12.1027423,11.7718031 12.3173138,11.7718031 Z M25.0842527,10.4300726 C24.6386043,10.4300726 24.3136571,10.5768229 24.1094016,10.8703279 C23.9051461,11.1638329 23.8030198,11.683948 23.8030198,12.4306887 L23.8030198,13.005716 C23.8030198,13.8443018 23.673041,14.4183252 23.4130794,14.7278033 C23.1531178,15.0372813 22.7260444,15.1920181 22.1318465,15.1920181 L21.636684,15.1920181 L21.636684,14.4073453 L21.8285595,14.4073453 C22.2123123,14.4073453 22.4794911,14.3274812 22.6301037,14.1677505 C22.7807164,14.0080199 22.8560216,13.6266688 22.8560216,13.0236857 L22.8560216,12.6403341 C22.8560216,11.8137281 22.9550531,11.2047642 23.1531191,10.8134242 C23.3511851,10.4220841 23.6874795,10.1305801 24.1620126,9.93890334 C23.6874795,9.75121985 23.3511851,9.46171243 23.1531191,9.0703724 C22.9550531,8.67903236 22.8560216,8.07006848 22.8560216,7.24346249 L22.8560216,6.8601109 C22.8560216,6.25712778 22.7807164,5.87577663 22.6301037,5.716046 C22.4794911,5.55631538 22.2123123,5.47645126 21.8285595,5.47645126 L21.636684,5.47645126 L21.636684,4.69177848 L22.1318465,4.69177848 C22.7260444,4.69177848 23.1531178,4.8465152 23.4130794,5.15599329 C23.673041,5.46547138 23.8030198,6.03749811 23.8030198,6.87209064 L23.8030198,7.45310789 C23.8030198,8.12796979 23.8937987,8.63011541 24.0753592,8.95955983 C24.2569197,9.28900425 24.5932141,9.45372399 25.0842527,9.45372399 L25.0842527,10.4300726 Z" id="{…}" fill="#4E4E4E"></path>
                </g>
            </g>
        </g>
    </g>
</svg>