<?xml version="1.0" encoding="UTF-8" standalone="no"?>
<svg width="49px" height="45px" viewBox="0 0 49 45" version="1.1" xmlns="http://www.w3.org/2000/svg" xmlns:xlink="http://www.w3.org/1999/xlink">
    <!-- Generator: Sketch 47.1 (45422) - http://www.bohemiancoding.com/sketch -->
    <title>noun_181229_cc</title>
    <desc>Created with Sketch.</desc>
    <defs></defs>
    <g id="Page-1" stroke="none" stroke-width="1" fill="none" fill-rule="evenodd">
        <g id="Forge" transform="translate(-719.000000, -876.000000)" fill="#FFFFFF">
            <g id="noun_181229_cc" transform="translate(719.000000, 876.000000)">
                <g id="Group">
                    <path d="M24.5,0.435128571 C27.1345792,4.32366964 29.7690375,8.21229643 32.4035394,12.1008911 L16.5964606,12.1008911 L24.5,0.435128571 Z" id="Shape"></path>
                    <path d="M13.0817206,32.0531786 L13.0817206,44.9251071 L2.17777778e-07,44.9251071 L2.17777778e-07,32.0531786 C4.3605737,32.0531786 8.7211474,32.0531786 13.0817206,32.0531786 L13.0817206,32.0531786 Z" id="Shape"></path>
                    <path d="M42.4591392,32.025375 C38.859634,32.025375 35.9182789,34.9320536 35.9182789,38.4891429 C35.9182789,42.0461786 38.859634,44.9529107 42.4591392,44.9529107 C46.0586443,44.9529107 49,42.0461786 49,38.4891429 C49,34.9320536 46.0586443,32.025375 42.4591392,32.025375 L42.4591392,32.025375 Z" id="Shape" fill-rule="nonzero"></path>
                    <path d="M28.6281994,34.7149821 C28.9124854,34.7230407 29.1824308,34.8396219 29.3809069,35.0400536 L32.0196614,37.6365 C32.2914615,37.839198 32.4517547,38.1549369 32.4532224,38.4905103 C32.4546901,38.8260837 32.2971646,39.1431684 32.0271475,39.3481607 C32.0260768,39.3481623 32.025006,39.3481623 32.0239353,39.3481607 L29.3809042,41.9488393 C29.1046793,42.2234833 28.7001493,42.3315752 28.3206832,42.232134 C27.9412171,42.1326928 27.6449106,41.840943 27.5441023,41.4674953 C27.443294,41.0940476 27.5534173,40.6960765 27.8327214,40.4244643 L28.7009012,39.5701607 L17.6583347,39.5701607 C17.2631097,39.576245 16.8952317,39.37226 16.6958127,39.036451 C16.4963936,38.700642 16.4963936,38.2851438 16.6958127,37.9493347 C16.8952317,37.6135257 17.2631097,37.4095407 17.6583347,37.415625 L28.6998319,37.415625 L27.8327214,36.5623929 C27.5089022,36.2526817 27.4115349,35.7791274 27.5875371,35.3699176 C27.7635393,34.9607077 28.1768045,34.6997909 28.6281961,34.7128929 L28.6281994,34.7149821 Z" id="Shape"></path>
                    <path d="M34.5216466,15.4441339 C35.8513171,15.7041857 37.2206869,16.125675 38.5621055,16.4793536 C39.9952586,16.8384804 39.4176281,18.9556768 37.994367,18.5602929 L36.8086388,18.2478321 L42.3299213,27.657375 C43.1146922,28.9149107 41.1491122,30.0319821 40.4342528,28.7346964 L34.9129693,19.3251268 L34.595421,20.4918375 C34.2176408,21.8799107 32.1017195,21.3223018 32.4794997,19.9342607 L33.4481829,16.3773 C33.520937,15.8471518 33.9780019,15.4498232 34.5216466,15.4441339 L34.5216466,15.4441339 Z" id="Shape"></path>
                    <path d="M15.4794207,15.4449536 C16.3099151,15.4765607 16.8033266,16.3712036 16.3775379,17.0735196 L10.8562549,26.4829821 L12.0419836,26.1705 C13.4525972,25.7988214 14.0192675,27.8807679 12.6086533,28.2525 C12.6086533,28.2525 10.1160211,28.9097143 8.86970451,29.2382679 C8.32012977,29.3831786 7.65071191,28.9239107 7.52894419,28.4765893 C7.19500157,27.2499643 6.8610584,26.0232857 6.52711523,24.7965536 C6.34469477,24.1265357 6.82471129,23.4595179 7.52894419,23.4267857 C8.04900569,23.4026786 8.51437883,23.7423214 8.6419683,24.2390357 L8.95951661,25.4057143 L14.4807996,15.9962304 C14.6817252,15.6422089 15.0676416,15.4291714 15.4794207,15.4449536 Z" id="Shape"></path>
                </g>
            </g>
        </g>
    </g>
</svg>