<?xml version="1.0" encoding="UTF-8" standalone="no"?>
<svg width="868px" height="396px" viewBox="0 0 868 396" version="1.1" xmlns="http://www.w3.org/2000/svg" xmlns:xlink="http://www.w3.org/1999/xlink">
    <!-- Generator: Sketch 47.1 (45422) - http://www.bohemiancoding.com/sketch -->
    <title>Artboard</title>
    <desc>Created with Sketch.</desc>
    <defs>
        <filter x="0.0%" y="0.0%" width="100.0%" height="100.0%" filterUnits="objectBoundingBox" id="filter-1">
            <feGaussianBlur stdDeviation="0" in="SourceGraphic"></feGaussianBlur>
        </filter>
    </defs>
    <g id="Page-1" stroke="none" stroke-width="1" fill="none" fill-rule="evenodd">
        <g id="Artboard">
            <g id="Group-20" transform="translate(61.000000, 0.000000)">
                <g id="ambassador_logo" transform="translate(0.000000, 95.000000)" fill-rule="nonzero">
                    <g id="Group-17">
                        <g id="Group-7">
                            <g>
                                <g transform="translate(0.000000, 0.176172)">
                                    <g id="M-Copy-3" transform="translate(427.796338, 0.000000)">
                                        <g id="Group-Copy-18">
                                            <path d="M0.735921156,54.1136914 L0.735921156,54.1136914 L1.03151727,74.4347848 C1.0858695,78.1712905 3.95096807,82.3388257 7.43078671,83.7358552 L118.879204,128.478626 C122.355941,129.874418 128.000059,129.88428 131.478811,128.49789 L237.59655,86.2066846 C241.077925,84.8192489 243.915913,80.6624058 243.941231,76.9197809 L244.080184,56.3791193 C244.105558,52.6281042 241.319013,48.4566528 237.856387,47.0431816 L126.115072,1.4294979 C122.659847,0.0190478596 117.032404,0.0140067977 113.562357,1.42498622 L6.92049615,44.7873624 C3.45203361,46.1976976 0.681520871,50.3738815 0.735921156,54.1136914 L0.735921156,54.1136914 Z" id="Rectangle-49" fill="#C2C2C2" opacity="0.800000012"></path>
                                            <path d="M113.659442,1.14461768 C117.121524,-0.267513789 122.736663,-0.260995761 126.206074,1.1611706 L237.672593,46.8530613 C241.139825,48.2743347 241.1318,50.5582589 237.648807,51.9567022 L131.481739,94.5834329 C128.00137,95.9808226 122.367696,95.9810238 118.893704,94.5819202 L7.28000045,49.6309994 C3.80818992,48.2327743 3.80188317,45.9538855 7.26238366,44.5423987 L113.659442,1.14461768 L113.659442,1.14461768 Z" id="Rectangle-49-Copy-4" fill="#FFFFFF" opacity="0.480000019"></path>
                                        </g>
                                    </g>
                                    <g id="Group" opacity="0.902985075" transform="translate(278.603340, 53.312993)">
                                        <g id="M-Copy-2">
                                            <g id="Group-Copy-18">
                                                <path d="M0.735921156,54.1136914 L0.735921156,54.1136914 L1.03151727,74.4347848 C1.0858695,78.1712905 3.95096807,82.3388257 7.43078671,83.7358552 L118.879204,128.478626 C122.355941,129.874418 128.000059,129.88428 131.478811,128.49789 L237.59655,86.2066846 C241.077925,84.8192489 243.915913,80.6624058 243.941231,76.9197809 L244.080184,56.3791193 C244.105558,52.6281042 241.319013,48.4566528 237.856387,47.0431816 L126.115072,1.4294979 C122.659847,0.0190478596 117.032404,0.0140067977 113.562357,1.42498622 L6.92049615,44.7873624 C3.45203361,46.1976976 0.681520871,50.3738815 0.735921156,54.1136914 L0.735921156,54.1136914 Z" id="Rectangle-49" fill="#C2C2C2" opacity="0.800000012"></path>
                                                <path d="M113.659442,1.14461768 C117.121524,-0.267513789 122.736663,-0.260995761 126.206074,1.1611706 L237.672593,46.8530613 C241.139825,48.2743347 241.1318,50.5582589 237.648807,51.9567022 L131.481739,94.5834329 C128.00137,95.9808226 122.367696,95.9810238 118.893704,94.5819202 L7.28000045,49.6309994 C3.80818992,48.2327743 3.80188317,45.9538855 7.26238366,44.5423987 L113.659442,1.14461768 L113.659442,1.14461768 Z" id="Rectangle-49-Copy-4" fill="#FFFFFF" opacity="0.480000019"></path>
                                            </g>
                                        </g>
                                    </g>
                                    <g id="M-Copy-2" transform="translate(134.083694, 109.666667)">
                                        <g id="Group-Copy-18">
                                            <path d="M0.735921156,54.1136914 L0.735921156,54.1136914 L1.03151727,74.4347848 C1.0858695,78.1712905 3.95096807,82.3388257 7.43078671,83.7358552 L118.879204,128.478626 C122.355941,129.874418 128.000059,129.88428 131.478811,128.49789 L237.59655,86.2066846 C241.077925,84.8192489 243.915913,80.6624058 243.941231,76.9197809 L244.080184,56.3791193 C244.105558,52.6281042 241.319013,48.4566528 237.856387,47.0431816 L126.115072,1.4294979 C122.659847,0.0190478596 117.032404,0.0140067977 113.562357,1.42498622 L6.92049615,44.7873624 C3.45203361,46.1976976 0.681520871,50.3738815 0.735921156,54.1136914 L0.735921156,54.1136914 Z" id="Rectangle-49" fill="#C2C2C2" opacity="0.800000012"></path>
                                            <path d="M113.659442,1.14461768 C117.121524,-0.267513789 122.736663,-0.260995761 126.206074,1.1611706 L237.672593,46.8530613 C241.139825,48.2743347 241.1318,50.5582589 237.648807,51.9567022 L131.481739,94.5834329 C128.00137,95.9808226 122.367696,95.9810238 118.893704,94.5819202 L7.28000045,49.6309994 C3.80818992,48.2327743 3.80188317,45.9538855 7.26238366,44.5423987 L113.659442,1.14461768 L113.659442,1.14461768 Z" id="Rectangle-49-Copy-4" fill="#FFFFFF" opacity="0.480000019"></path>
                                        </g>
                                    </g>
                                    <g id="M-Copy-5" transform="translate(271.665224, 168.000000)">
                                        <g id="Group-Copy-18">
                                            <path d="M0.735921156,54.1136914 L0.735921156,54.1136914 L1.03151727,74.4347848 C1.0858695,78.1712905 3.95096807,82.3388257 7.43078671,83.7358552 L118.879204,128.478626 C122.355941,129.874418 128.000059,129.88428 131.478811,128.49789 L237.59655,86.2066846 C241.077925,84.8192489 243.915913,80.6624058 243.941231,76.9197809 L244.080184,56.3791193 C244.105558,52.6281042 241.319013,48.4566528 237.856387,47.0431816 L126.115072,1.4294979 C122.659847,0.0190478596 117.032404,0.0140067977 113.562357,1.42498622 L6.92049615,44.7873624 C3.45203361,46.1976976 0.681520871,50.3738815 0.735921156,54.1136914 L0.735921156,54.1136914 Z" id="Rectangle-49" fill="#5D5D5D" opacity="0.800000012"></path>
                                            <path d="M113.659442,1.14461768 C117.121524,-0.267513789 122.736663,-0.260995761 126.206074,1.1611706 L237.672593,46.8530613 C241.139825,48.2743347 241.1318,50.5582589 237.648807,51.9567022 L131.481739,94.5834329 C128.00137,95.9808226 122.367696,95.9810238 118.893704,94.5819202 L7.28000045,49.6309994 C3.80818992,48.2327743 3.80188317,45.9538855 7.26238366,44.5423987 L113.659442,1.14461768 L113.659442,1.14461768 Z" id="Rectangle-49-Copy-4" fill="#FFFFFF" opacity="0.480000019"></path>
                                        </g>
                                    </g>
                                    <g id="M-Copy-6" transform="translate(0.000000, 169.166667)">
                                        <g id="Group-Copy-18">
                                            <path d="M0.735921156,54.1136914 L0.735921156,54.1136914 L1.03151727,74.4347848 C1.0858695,78.1712905 3.95096807,82.3388257 7.43078671,83.7358552 L118.879204,128.478626 C122.355941,129.874418 128.000059,129.88428 131.478811,128.49789 L237.59655,86.2066846 C241.077925,84.8192489 243.915913,80.6624058 243.941231,76.9197809 L244.080184,56.3791193 C244.105558,52.6281042 241.319013,48.4566528 237.856387,47.0431816 L126.115072,1.4294979 C122.659847,0.0190478596 117.032404,0.0140067977 113.562357,1.42498622 L6.92049615,44.7873624 C3.45203361,46.1976976 0.681520871,50.3738815 0.735921156,54.1136914 L0.735921156,54.1136914 Z" id="Rectangle-49" fill="#C2C2C2" opacity="0.800000012"></path>
                                            <path d="M113.659442,1.14461768 C117.121524,-0.267513789 122.736663,-0.260995761 126.206074,1.1611706 L237.672593,46.8530613 C241.139825,48.2743347 241.1318,50.5582589 237.648807,51.9567022 L131.481739,94.5834329 C128.00137,95.9808226 122.367696,95.9810238 118.893704,94.5819202 L7.28000045,49.6309994 C3.80818992,48.2327743 3.80188317,45.9538855 7.26238366,44.5423987 L113.659442,1.14461768 L113.659442,1.14461768 Z" id="Rectangle-49-Copy-4" fill="#FFFFFF" opacity="0.480000019"></path>
                                        </g>
                                    </g>
                                    <g id="M-Copy-4" transform="translate(563.151515, 56.000000)">
                                        <g id="Group-Copy-18">
                                            <path d="M0.735921156,54.1136914 L0.735921156,54.1136914 L1.03151727,74.4347848 C1.0858695,78.1712905 3.95096807,82.3388257 7.43078671,83.7358552 L118.879204,128.478626 C122.355941,129.874418 128.000059,129.88428 131.478811,128.49789 L237.59655,86.2066846 C241.077925,84.8192489 243.915913,80.6624058 243.941231,76.9197809 L244.080184,56.3791193 C244.105558,52.6281042 241.319013,48.4566528 237.856387,47.0431816 L126.115072,1.4294979 C122.659847,0.0190478596 117.032404,0.0140067977 113.562357,1.42498622 L6.92049615,44.7873624 C3.45203361,46.1976976 0.681520871,50.3738815 0.735921156,54.1136914 L0.735921156,54.1136914 Z" id="Rectangle-49" fill="#C2C2C2" opacity="0.800000012"></path>
                                            <path d="M113.659442,1.14461768 C117.121524,-0.267513789 122.736663,-0.260995761 126.206074,1.1611706 L237.672593,46.8530613 C241.139825,48.2743347 241.1318,50.5582589 237.648807,51.9567022 L131.481739,94.5834329 C128.00137,95.9808226 122.367696,95.9810238 118.893704,94.5819202 L7.28000045,49.6309994 C3.80818992,48.2327743 3.80188317,45.9538855 7.26238366,44.5423987 L113.659442,1.14461768 L113.659442,1.14461768 Z" id="Rectangle-49-Copy-4" fill="#FFFFFF" opacity="0.480000019"></path>
                                        </g>
                                    </g>
                                </g>
                            </g>
                        </g>
                    </g>
                </g>
                <g id="forge_logo-copy" transform="translate(225.000000, 0.000000)">
                    <g id="forge">
                        <g id="ambassador_logo-copy-4" transform="translate(12.319522, 44.431715)">
                            <g id="Group-19" transform="translate(-0.000000, -0.000000)">
                                <g id="Group-2" transform="translate(-0.000000, 0.068976)">
                                    <g id="Group-17-Copy-2" transform="translate(-0.000000, 0.307970)">
                                        <g id="Group-16" transform="translate(-0.000000, -0.000000)">
                                            <ellipse id="Oval-8-Copy-10" fill-opacity="0.198907382" fill="#000000" filter="url(#filter-1)" transform="translate(156.751659, 271.185535) scale(1, -1) translate(-156.751659, -271.185535) " cx="156.751659" cy="271.185535" rx="69.9014681" ry="7.80725547"></ellipse>
                                            <g id="Group-12-Copy-8" transform="translate(106.258503, 240.959301)" fill="#000000">
                                                <path d="M20.4440203,0.407235743 C19.7805919,0.395743994 19.2334236,0.918189802 19.2217783,1.58025336 L18.8159552,24.6522881 C18.804358,25.3116196 19.3332718,25.855438 19.9961999,25.8669211 L30.1217759,26.0423139 C30.7852043,26.0538057 31.3323726,25.5313598 31.3440179,24.8692963 L31.749841,1.7972615 C31.7614382,1.13793001 31.2325244,0.594111663 30.5695963,0.582628579 L20.4440203,0.407235743 Z" id="Line-Copy-18" fill-rule="nonzero" transform="translate(25.282898, 13.224775) rotate(-3.000000) translate(-25.282898, -13.224775) "></path>
                                                <path d="M0,21.2397913 C0,19.1652852 1.68960866,17.4835657 3.74862408,17.4835657 L19.7450716,17.4835657 C21.8153795,17.4835657 23.4973593,19.1617794 23.5018807,21.2329181 L23.5067996,23.486142 C23.5080099,24.0405531 23.0603601,24.5013486 22.5138548,24.5151828 L3.75106459,24.9901416 C1.67940882,25.0425833 0,23.3980697 0,21.3288699 L0,21.2397913 Z" id="Rectangle-7-Copy-15"></path>
                                            </g>
                                            <g id="Group-12-Copy-10" transform="translate(191.564518, 254.459301) scale(-1, 1) translate(-191.564518, -254.459301) translate(175.064518, 240.959301)" fill="#000000">
                                                <path d="M20.4440203,0.407235743 C19.7805919,0.395743994 19.2334236,0.918189802 19.2217783,1.58025336 L18.8159552,24.6522881 C18.804358,25.3116196 19.3332718,25.855438 19.9961999,25.8669211 L30.1217759,26.0423139 C30.7852043,26.0538057 31.3323726,25.5313598 31.3440179,24.8692963 L31.749841,1.7972615 C31.7614382,1.13793001 31.2325244,0.594111663 30.5695963,0.582628579 L20.4440203,0.407235743 Z" id="Line-Copy-18" fill-rule="nonzero" transform="translate(25.282898, 13.224775) rotate(-3.000000) translate(-25.282898, -13.224775) "></path>
                                                <path d="M0,21.2397913 C0,19.1652852 1.68960866,17.4835657 3.74862408,17.4835657 L19.7450716,17.4835657 C21.8153795,17.4835657 23.4973593,19.1617794 23.5018807,21.2329181 L23.5067996,23.486142 C23.5080099,24.0405531 23.0603601,24.5013486 22.5138548,24.5151828 L3.75106459,24.9901416 C1.67940882,25.0425833 0,23.3980697 0,21.3288699 L0,21.2397913 Z" id="Rectangle-7-Copy-15"></path>
                                            </g>
                                            <path d="M220.05562,191.814511 L236.537721,81.8001301 C243.287846,36.7445391 211.834692,0.229237526 166.286885,0.229237526 L143.280519,0.229237526 C97.7314541,0.229237526 66.5705047,36.7035544 73.6777808,81.6969045 L91.0722675,191.814511 L220.05562,191.814511 Z" id="Combined-Shape" fill="#000000"></path>
                                            <path d="M255.600354,176.178819 L270.221738,182.208515 C270.221738,182.208515 262.246056,125.122007 248.029141,112.197292 C233.812225,99.272576 206.441307,117.826975 211.227068,128.575971 C214.068766,134.958528 223.963862,163.132283 223.963862,163.132283 L238.184625,168.996767 L235.725922,158.428285 L238.778129,157.729008 L241.740684,170.463246 L245.11446,171.854554 L241.990908,158.428285 L245.043115,157.729008 L248.670519,173.321033 L252.044295,174.71234 L248.255893,158.428285 L251.3081,157.729008 L255.600354,176.178819 Z" id="Combined-Shape-Copy-4" fill="#000000" transform="translate(240.447153, 144.998164) rotate(28.000000) translate(-240.447153, -144.998164) "></path>
                                            <polygon id="Combined-Shape" fill="#CF0019" points="209.172922 191.814511 226.351401 146.912027 155.407604 164.881694 84.4199612 149.311838 100.615461 191.814511 209.172922 191.814511"></polygon>
                                            <path d="M166.939924,167.903815 L166.939924,166.875049 C166.939924,165.81817 167.24841,165.014279 167.865392,164.463352 C168.482373,163.912425 169.294626,163.603237 170.302174,163.535776 C170.743683,163.502046 171.173866,163.485181 171.592734,163.485181 C173.143678,163.485181 174.468188,163.687559 175.566301,164.092322 L175.566301,166.638939 C174.536112,166.526505 173.177641,166.470289 171.490848,166.470289 C170.992734,166.470289 170.658777,166.50964 170.488965,166.588344 C170.319154,166.667048 170.234249,166.875048 170.234249,167.21235 L170.234249,167.397865 C170.234249,167.690193 170.296513,167.898193 170.421041,168.02187 C170.545569,168.145548 170.822924,168.207386 171.253113,168.207386 L172.849332,168.207386 C174.196503,168.207386 175.130452,168.786412 175.651207,169.944482 C175.900264,170.506652 176.02479,171.119408 176.02479,171.782769 L176.02479,172.339315 C176.02479,174.857836 174.87575,176.117078 172.577635,176.117078 C170.924804,176.117078 169.843688,176.091781 169.334253,176.041186 C168.824819,175.99059 168.156904,175.824753 167.330488,175.543668 L167.330488,172.99705 C168.575772,173.120728 170.041789,173.182565 171.728582,173.182565 C172.090847,173.182565 172.34839,173.12916 172.501221,173.022348 C172.654051,172.915535 172.730465,172.738454 172.730465,172.4911 L172.730465,172.221259 C172.730465,171.962661 172.668202,171.774337 172.543673,171.656281 C172.419145,171.538226 172.181412,171.479199 171.830469,171.479199 L170.302174,171.479199 C169.690852,171.479199 169.161615,171.37801 168.714445,171.175628 C168.267275,170.973247 167.936147,170.737139 167.721053,170.467298 C167.505958,170.197456 167.330489,169.877024 167.19464,169.505992 C167.024829,168.988795 166.939924,168.454742 166.939924,167.903815 Z M177.179502,175.982158 L177.179502,163.636966 L182.732308,163.636966 C183.932309,163.636966 184.866258,163.937723 185.534182,164.539245 C186.202107,165.140767 186.536065,166.16109 186.536065,167.600245 C186.536065,169.00567 186.337955,169.955723 185.941728,170.450433 C185.726633,170.697788 185.537013,170.874868 185.372862,170.981681 C185.208711,171.088493 184.98513,171.198115 184.702111,171.310549 L186.841724,175.982158 L183.08891,175.982158 L181.492691,171.614119 L180.473827,171.378009 L180.473827,175.982158 L177.179502,175.982158 Z M180.490808,168.915716 L182.307781,168.915716 C182.704008,168.915716 182.955891,168.820149 183.063439,168.629011 C183.170986,168.437873 183.224759,168.117441 183.224759,167.667705 C183.224759,167.217969 183.159665,166.897537 183.029476,166.706399 C182.899288,166.515261 182.658725,166.419694 182.307781,166.419694 L180.490808,166.419694 L180.490808,168.915716 Z M187.283231,172.38991 L187.283231,169.792697 L192.615284,169.792697 L192.615284,172.38991 L187.283231,172.38991 Z M193.243583,166.571479 L193.243583,163.636966 L201.411472,163.636966 L202.209581,164.952438 L198.320919,175.982158 L194.822821,175.982158 L198.185071,166.571479 L193.243583,166.571479 Z M208.152952,163.636966 L208.152952,175.982158 L204.858626,175.982158 L204.858626,166.740129 L202.854861,167.07743 L202.854861,165.003033 L204.892588,163.636966 L208.152952,163.636966 Z" id="SR-71-Copy-11" fill="#FFFFFF" transform="translate(187.546438, 169.801130) rotate(-15.000000) translate(-187.546438, -169.801130) "></path>
                                            <path d="M72.5513114,201.640611 C71.2011918,198.349741 73.0203077,195.681965 76.588109,195.681965 L235.648361,195.681965 C239.227942,195.681965 241.142774,198.385701 239.925959,201.719006 L231.738091,224.1486 L195.339626,236.56869 C191.948579,237.725802 191.890382,239.764435 195.206902,241.120984 L211.506958,247.788164 L214.428483,262.724752 C215.111216,266.21529 212.750368,269.04493 209.177154,269.04493 L103.059316,269.04493 C99.4763543,269.04493 97.1692928,266.233567 97.9091378,262.752456 L100.290672,251.546886 L117.617493,240.21743 C120.610536,238.260375 120.282688,235.7361 116.888194,234.580316 L81.0604818,222.381414 L72.5513114,201.640611 Z" id="Rectangle-4" fill="#000000"></path>
                                            <path d="M64.0382338,197.979553 C67.3897571,196.71063 73.0203077,195.681965 76.588109,195.681965 L235.648361,195.681965 C239.227942,195.681965 241.142774,198.385701 239.925959,201.719006 L231.738091,224.1486 L81.0604818,222.381414 C81.0604818,222.381414 42.1604306,213.026709 40.8839297,209.915282 C39.6074288,206.803856 64.0382338,197.979553 64.0382338,197.979553 Z" id="Rectangle-4-Copy-2" fill="#424242"></path>
                                            <polygon id="Rectangle-6" fill="#F5A623" points="120.2103 202.784681 141.582847 210.170423 151.971705 198.932755 177.686467 211.669058 166.176985 218.840487 155.527166 211.533131 141.202348 220.965341 118.303342 204.425709"></polygon>
                                            <polygon id="Line" fill="#CF0019" fill-rule="nonzero" points="222.972534 151.241134 231.348482 122.243919 228.224867 121.360497 219.848919 150.357711"></polygon>
                                            <polygon id="Line-Copy-11" fill="#CF0019" fill-rule="nonzero" points="92.8900953 157.79454 84.5695814 126.931715 81.4306519 127.760286 89.7511657 158.623111"></polygon>
                                            <g id="Group" transform="translate(99.402860, 46.333263)">
                                                <g id="Group-3" transform="translate(61.790473, 0.000000)">
                                                    <path d="M35.5038168,37.1302706 C47.7598353,30.1285385 51.9520116,14.6092734 44.8673046,2.46702177 C37.7825975,-9.67522987 0.484335268,27.8225365 0.484335268,27.8225365 C0.484335268,27.8225365 23.2477982,44.1320027 35.5038168,37.1302706 Z" id="Oval-3-Copy-4" fill="#FFFFFF"></path>
                                                    <ellipse id="Oval-3-Copy-5" fill="#000000" cx="15.1774601" cy="34.1455671" rx="8.23645263" ry="8.15999747"></ellipse>
                                                </g>
                                                <g id="Group-3-Copy" transform="translate(24.528087, 21.500000) scale(-1, 1) translate(-24.528087, -21.500000) translate(0.028087, 0.000000)">
                                                    <path d="M35.5038168,37.1302706 C47.7598353,30.1285385 51.9520116,14.6092734 44.8673046,2.46702177 C37.7825975,-9.67522987 0.484335268,27.8225365 0.484335268,27.8225365 C0.484335268,27.8225365 23.2477982,44.1320027 35.5038168,37.1302706 Z" id="Oval-3-Copy-4" fill="#FFFFFF"></path>
                                                    <ellipse id="Oval-3-Copy-5" fill="#000000" cx="15.1774601" cy="34.1455671" rx="8.23645263" ry="8.15999747"></ellipse>
                                                </g>
                                            </g>
                                            <path d="M152.723568,88.0119247 C153.990187,86.7586022 156.046802,86.7615898 157.30379,88.0053819 L172.665242,103.20557 C173.928209,104.455279 173.63814,106.115378 172.048768,106.898035 L158.739523,113.45193 C157.136087,114.241513 154.502703,114.282092 152.8765,113.551019 L137.984026,106.855983 C136.349404,106.121125 136.043209,104.517174 137.317699,103.256064 L152.723568,88.0119247 Z" id="Rectangle-4-Copy-7" fill="#F5A623"></path>
                                            <g id="Group-22" transform="translate(51.042116, 74.865745) rotate(83.000000) translate(-51.042116, -74.865745) translate(3.042116, 29.365745)" fill="#000000">
                                                <path d="M63.286279,76.4824888 L77.9076625,82.5121842 C77.9076625,82.5121842 69.931981,25.4256767 55.7150657,12.5009611 C41.4981505,-0.423754509 14.1272316,18.1306441 18.9129934,28.879641 C21.7546907,35.2621977 31.6497869,63.4359525 31.6497869,63.4359525 L45.8705502,69.3004366 L43.4118471,58.7319541 L46.4640542,58.0326778 L49.4266092,70.7669157 L52.8003851,72.1582232 L49.6768326,58.7319541 L52.7290398,58.0326778 L56.3564441,73.6247022 L59.73022,75.0160098 L55.9418181,58.7319541 L58.9940253,58.0326778 L63.286279,76.4824888 Z" id="Combined-Shape-Copy-13" transform="translate(48.133078, 45.301834) scale(-1, 1) rotate(-58.000000) translate(-48.133078, -45.301834) "></path>
                                            </g>
                                        </g>
                                    </g>
                                </g>
                            </g>
                        </g>
                        <path d="M176.314673,54.2280346 C176.159731,54.1030182 175.859734,53.8559156 175.435522,53.4983438 C174.723182,52.8979061 173.928067,52.2100583 173.071067,51.4464939 C170.622276,49.2646857 168.173773,46.9183737 165.893858,44.5034875 C163.271754,41.7261554 161.047246,39.0392797 159.349179,36.5250586 C154.347907,29.1199875 154.494707,24.729925 160.755138,22.7359333 C168.60579,20.2354447 173.673391,22.5185837 175.105486,27.0209859 C175.613492,28.6181222 175.433899,30.1170046 174.829723,30.804873 C174.323223,31.3815361 173.358372,31.4241406 171.62894,30.4098823 C170.658335,29.8406519 169.405191,30.1578313 168.829966,31.1183222 C168.254741,32.0788131 168.575261,33.3188972 169.545867,33.8881275 C172.830722,35.8145937 175.964482,35.6762175 177.913463,33.4572561 C179.550643,31.5932876 179.90432,28.641508 179.002759,25.8070683 C176.861096,19.0738346 169.429496,15.7256277 159.503329,18.8871826 C149.921067,21.939201 149.669278,29.4689294 155.952247,38.7717269 C157.78742,41.4889526 160.146582,44.3384711 162.908328,47.2637114 C165.275812,49.7713504 167.806666,52.1965771 170.337232,54.4512439 C171.223007,55.2404457 172.046183,55.9525693 172.786155,56.5762987 C173.233331,56.9532271 173.555753,57.2188009 173.732769,57.3616274 C174.607199,58.0671706 175.894044,57.9376477 176.607017,57.07233 C177.31999,56.2070122 177.189103,54.9335778 176.314673,54.2280346 Z" id="Path" fill="#000000" transform="translate(165.589684, 37.751450) rotate(-36.000000) translate(-165.589684, -37.751450) "></path>
                        <g id="Group-9-Copy-2" transform="translate(278.116266, 237.618173) rotate(-122.000000) translate(-278.116266, -237.618173) translate(252.616266, 222.118173)" fill-rule="nonzero" fill="#000000">
                            <path d="M15.4913633,30.9432312 C23.9887999,30.9432312 30.8746058,24.1156003 30.8746058,15.6966124 C30.8746058,7.27762447 23.9887999,0.449993519 15.4913633,0.449993519 C6.99392666,0.449993519 0.108120789,7.27762447 0.108120789,15.6966124 C0.108120789,17.4719844 1.56261336,18.9112078 3.35682086,18.9112078 C5.15102837,18.9112078 6.60552094,17.4719844 6.60552094,15.6966124 C6.60552094,10.8253942 10.5853545,6.87918439 15.4913633,6.87918439 C20.3973721,6.87918439 24.3772056,10.8253942 24.3772056,15.6966124 C24.3772056,20.5678306 20.3973721,24.5140404 15.4913633,24.5140404 C13.6971558,24.5140404 12.2426632,25.9532638 12.2426632,27.7286358 C12.2426632,29.5040078 13.6971558,30.9432312 15.4913633,30.9432312 Z" id="Oval-3-Copy-2"></path>
                            <path d="M29.4013011,16.2472665 L48.2300316,12.410114 C49.9873558,12.0519847 51.1185471,10.3520261 50.7566183,8.61315023 C50.3946895,6.87427437 48.6766955,5.75495815 46.9193714,6.11308748 L28.0906408,9.95023995 C26.3333167,10.3083693 25.2021253,12.0083279 25.5640541,13.7472037 C25.925983,15.4860796 27.6439769,16.6053958 29.4013011,16.2472665 Z" id="Line"></path>
                        </g>
                        <g id="Group-20-Copy" transform="translate(59.977839, 67.799998) rotate(111.000000) translate(-59.977839, -67.799998) translate(4.477839, 25.299998)" fill-rule="nonzero" fill="#000000">
                            <g id="noun_829070_cc" transform="translate(35.447040, 42.182922) rotate(-17.000000) translate(-35.447040, -42.182922) translate(9.947040, 6.182922)">
                                <path d="M21.8855732,0.351880149 L0.102111275,42.2588714 L4.32543213,64.3699113 L15.0400845,71.3338738 C16.834895,72.358787 50.8489074,16.8920266 50.8489074,16.8920266 L21.8855732,0.351880149 Z" id="Shape"></path>
                            </g>
                            <polygon id="Line" points="32.9266662 49.6484054 108.562438 62.740814 110.801673 50.0747755 35.1659013 36.9823669"></polygon>
                        </g>
                    </g>
                </g>
            </g>
        </g>
    </g>
</svg>