<?xml version="1.0" encoding="UTF-8" standalone="no"?>
<svg width="72px" height="54px" viewBox="0 0 72 54" version="1.1" xmlns="http://www.w3.org/2000/svg" xmlns:xlink="http://www.w3.org/1999/xlink">
    <!-- Generator: Sketch 47.1 (45422) - http://www.bohemiancoding.com/sketch -->
    <title>noun_676618_cc</title>
    <desc>Created with Sketch.</desc>
    <defs>
        <polygon id="path-1" points="8.37176643 49.4921406 22.3662562 55.2439774 61.4778008 60 54.592905 49.4921406 72 29.3141703 72 0 0 0 0 39.130053"></polygon>
    </defs>
    <g id="Page-1" stroke="none" stroke-width="1" fill="none" fill-rule="evenodd">
        <g id="Forge" transform="translate(-266.000000, -870.000000)">
            <g id="noun_676618_cc" transform="translate(266.000000, 866.000000)">
                <mask id="mask-2" fill="white">
                    <use xlink:href="#path-1"></use>
                </mask>
                <g id="Mask"></g>
                <g mask="url(#mask-2)" id="Group">
                    <g transform="translate(0.000000, 4.000000)">
                        <g>
                            <path d="M27.0808511,10.46875 L18.2638298,10.46875 L18.2638298,18.203125 C21.0191489,18.28125 24.0106383,18.4375 27.0808511,18.515625 L27.0808511,10.46875 Z" id="Shape" fill="#FFFFFF" fill-rule="nonzero"></path>
                            <path d="M38.1808511,18.90625 L38.1808511,10.46875 L29.3638298,10.46875 L29.3638298,18.59375 C32.1191489,18.75 34.9531915,18.828125 37.8659574,18.984375 L38.1808511,18.984375 L38.1808511,18.90625 Z" id="Shape" fill="#FFFFFF" fill-rule="nonzero"></path>
                            <rect id="Rectangle-path" fill="#FFFFFF" fill-rule="nonzero" x="40.3851064" y="10.46875" width="8.81702128" height="8.515625"></rect>
                            <rect id="Rectangle-path" fill="#FFFFFF" fill-rule="nonzero" x="18.2638298" y="0" width="8.81702128" height="8.515625"></rect>
                            <rect id="Rectangle-path" fill="#FFFFFF" fill-rule="nonzero" x="29.4425532" y="0" width="8.81702128" height="8.515625"></rect>
                            <path d="M69.7489362,46.09375 C67.7808511,44.6875 65.5765957,44.0625 63.687234,44.53125 C62.9787234,43.28125 61.7978723,41.875 60.2234043,40.859375 C65.4978723,36.5625 69.0404255,31.171875 69.906383,25.46875 C70.9297872,19.0625 68.0170213,12.578125 67.0723404,10.703125 C69.7489362,9.0625 71.1659574,7.65625 71.6382979,5.78125 C72.1893617,3.515625 70.7723404,0.859375 69.5914894,-5.32907052e-15 C69.512766,1.328125 68.9617021,2.1875 67.7021277,3.125 C66.6787234,3.90625 64.1595745,4.609375 63.9234043,7.03125 C62.1914894,6.5625 60.5382979,7.890625 59.4361702,8.359375 C58.2553191,8.828125 56.4446809,9.0625 55.5,8.984375 C56.1297872,10.859375 56.8382979,12.265625 58.8851064,12.96875 C60.6170213,13.59375 62.8212766,12.578125 65.2617021,11.640625 C65.7340426,12.34375 66.3638298,16.015625 65.7340426,18.046875 C64.7106383,21.171875 57.0744681,21.484375 42.8255319,21.015625 C21.4914894,20.390625 1.25957447,18.203125 0.708510638,23.046875 C0.393617021,25.46875 0.236170213,30.46875 3.54255319,36.5625 C7.79361702,44.375 17.4765957,50.234375 29.7574468,50.46875 C33.5361702,50.546875 37.2361702,50.234375 40.7,49.53125 C43.2978723,50.859375 45.6595745,51.953125 48.1787234,52.578125 C52.3510638,53.671875 56.0510638,53.359375 57.6255319,52.65625 C59.2,51.953125 57.6255319,51.40625 56.1297872,51.171875 C54.712766,50.9375 51.1702128,48.359375 47.4702128,47.734375 C51.7212766,46.25 55.5787234,44.21875 58.806383,41.796875 C60.6170213,42.890625 61.9553191,44.375 62.4276596,45.703125 L62.7425532,46.5625 L63.6085106,46.25 C65.1042553,45.703125 67.0723404,46.09375 68.8042553,47.34375 C70.7723404,48.75 71.8744681,50.859375 71.7170213,52.890625 C71.5595745,55 70.693617,56.796875 69.1978723,57.96875 C67.3085106,59.375 64.5531915,59.921875 61.4042553,59.296875 L60.3808511,59.140625 L60.3021277,60.15625 C60.3021277,60.78125 59.7510638,61.40625 58.9638298,61.875 C57.7829787,62.578125 56.3659574,62.734375 55.4212766,62.265625 L54.7914894,61.953125 L54.3191489,62.65625 C52.7446809,64.765625 49.9893617,65.9375 46.7617021,65.859375 C44.9510638,65.78125 43.2191489,65.3125 41.8021277,64.53125 C41.6446809,62.8125 40.7787234,61.25 39.3617021,60.234375 C38.1021277,59.296875 36.606383,58.828125 34.9531915,58.984375 C34.087234,57.03125 32.1978723,55.703125 29.993617,55.703125 C29.5212766,55.703125 29.1276596,55.703125 28.7340426,55.859375 C27.4744681,54.140625 25.506383,52.96875 23.3021277,52.65625 C20.4680851,52.265625 17.8702128,53.28125 16.1382979,55.234375 C15.0361702,54.6875 14.012766,53.828125 13.3829787,52.734375 C12.9106383,51.875 12.2808511,50.15625 13.3829787,48.203125 L11.8085106,47.265625 C10.6276596,49.21875 10.6276596,51.484375 11.8085106,53.515625 C12.5957447,54.84375 13.6978723,55.9375 15.1148936,56.640625 C14.7212766,57.34375 14.4851064,58.125 14.3276596,58.984375 C14.3276596,59.140625 14.3276596,59.21875 14.2489362,59.375 C11.7297872,60 9.99787234,62.109375 9.76170213,64.6875 C9.52553191,67.96875 11.8085106,70.234375 14.012766,71.171875 C15.1148936,71.640625 16.5319149,71.71875 17.6340426,71.484375 C19.0510638,73.359375 21.412766,74.609375 24.2468085,74.921875 C24.7191489,75 25.1914894,75 25.7425532,75 C27.2382979,75 28.812766,74.6875 30.2297872,74.21875 C31.8829787,73.59375 33.3787234,72.734375 34.4021277,71.640625 C36.8425532,71.484375 38.9680851,70.546875 40.3851064,68.984375 C41.093617,68.203125 41.5659574,67.34375 41.8021277,66.484375 C43.2978723,67.1875 45.0297872,67.578125 46.8404255,67.65625 C46.9978723,67.65625 47.1553191,67.65625 47.312766,67.65625 C50.6191489,67.65625 53.5319149,66.40625 55.5,64.296875 C56.9170213,64.6875 58.6489362,64.453125 60.0659574,63.59375 C61.0106383,63.046875 61.7191489,62.265625 62.0340426,61.40625 C65.3404255,61.796875 68.2531915,61.171875 70.3787234,59.609375 C72.2680851,58.125 73.3702128,55.9375 73.606383,53.28125 C73.606383,50.546875 72.1893617,47.8125 69.7489362,46.09375 Z M25.112766,35.78125 C26.1361702,35.78125 26.9234043,36.5625 26.9234043,37.578125 C26.9234043,38.59375 26.1361702,39.375 25.112766,39.375 C24.0893617,39.375 23.3021277,38.59375 23.3021277,37.578125 C23.2234043,36.640625 24.0893617,35.78125 25.112766,35.78125 Z M18.8148936,47.5 C15.587234,46.09375 11.3361702,43.90625 7.71489362,39.84375 C8.81702128,40 9.99787234,40.15625 11.1787234,40.15625 C14.4851064,43.515625 19.3659574,46.71875 24.7978723,47.734375 C20.4680851,46.09375 16.9255319,44.296875 13.5404255,40.15625 C14.3276596,40.15625 15.0361702,40.078125 15.8234043,40 C19.8382979,43.828125 25.6638298,47.1875 29.7574468,48.046875 C25.9787234,46.328125 21.0978723,43.28125 17.9489362,39.765625 C18.893617,39.609375 19.7595745,39.453125 20.7042553,39.21875 C23.5382979,42.96875 30.6234043,48.4375 38.5744681,48.828125 C29.206383,50.15625 21.5702128,48.671875 18.8148936,47.5 Z M38.7319149,67.5 C37.6297872,68.671875 35.8978723,69.453125 33.8510638,69.453125 L33.3787234,69.453125 L33.0638298,69.84375 C31.5680851,71.640625 28.0255319,73.203125 24.5617021,72.734375 C22.0425532,72.421875 20.0744681,71.25 19.1297872,69.609375 L18.6574468,68.828125 L17.7914894,69.140625 C17.3191489,69.296875 15.8234043,69.453125 15.0361702,69.0625 C14.2489362,68.75 11.887234,67.421875 12.0446809,64.6875 C12.2021277,62.734375 13.6191489,61.328125 15.5085106,61.171875 L16.5319149,61.09375 L16.5319149,60.078125 C16.5319149,59.765625 16.5319149,59.453125 16.6106383,59.140625 C17.0042553,56.171875 19.9170213,54.140625 23.0659574,54.609375 C24.8765957,54.84375 26.5297872,55.9375 27.3957447,57.5 L27.8680851,58.359375 L28.7340426,57.96875 C29.1276596,57.8125 29.6,57.734375 30.0723404,57.734375 C31.6468085,57.734375 32.9851064,58.828125 33.3,60.3125 L33.5361702,61.328125 L34.5595745,61.09375 C35.8978723,60.859375 37.1574468,61.09375 38.1808511,61.875 C39.1255319,62.578125 39.6765957,63.59375 39.7553191,64.6875 C39.8340426,65.703125 39.4404255,66.71875 38.7319149,67.5 Z" id="Shape" fill="#FFFFFF" fill-rule="nonzero"></path>
                        </g>
                    </g>
                </g>
            </g>
        </g>
    </g>
</svg>