<?xml version="1.0" encoding="UTF-8" standalone="no"?>
<svg width="127px" height="173px" viewBox="0 0 127 173" version="1.1" xmlns="http://www.w3.org/2000/svg" xmlns:xlink="http://www.w3.org/1999/xlink">
    <!-- Generator: Sketch 47.1 (45422) - http://www.bohemiancoding.com/sketch -->
    <title>Group 19</title>
    <desc>Created with Sketch.</desc>
    <defs>
        <filter x="0.0%" y="0.0%" width="100.0%" height="100.0%" filterUnits="objectBoundingBox" id="filter-1">
            <feGaussianBlur stdDeviation="0" in="SourceGraphic"></feGaussianBlur>
        </filter>
        <path d="M43.5351562,102.565309 L81.4804687,110.979371 L119.402344,101.268434 L97.7070312,158.600465 L64.6875,158.686402 L43.5351562,102.565309 Z" id="path-2"></path>
    </defs>
    <g id="Page-1" stroke="none" stroke-width="1" fill="none" fill-rule="evenodd">
        <g id="Forge" transform="translate(-257.000000, -4712.000000)">
            <g id="Group-20" transform="translate(240.000000, 4555.000000)">
                <g id="Group">
                    <g id="Group-6" transform="translate(8.000000, 155.000000)">
                        <g id="Group-19" transform="translate(73.000000, 87.500000) scale(-1, 1) translate(-73.000000, -87.500000) ">
                            <g id="Group-2" transform="translate(0.000000, 0.668394)">
                                <g id="Group-17-Copy-2" transform="translate(0.000000, 0.797548)">
                                    <g id="Group-16">
                                        <ellipse id="Oval-8-Copy-10" fill="#E4E4E4" filter="url(#filter-1)" transform="translate(82.198912, 168.426731) scale(1, -1) translate(-82.198912, -168.426731) " cx="82.1989119" cy="168.426731" rx="37.364715" ry="4.21909697"></ellipse>
                                        <g id="Group-12-Copy-8" transform="translate(55.208600, 151.461138)" fill="#000000">
                                            <path d="M11.483151,0.86091293 C10.8219383,0.849333717 10.2765358,1.37930022 10.2650953,2.03686362 L10.0673685,13.4016271 C10.0558676,14.062666 10.5832413,14.6079425 11.2437758,14.6195099 L15.5459889,14.6948506 C16.2072016,14.7064298 16.7526042,14.1764633 16.7640446,13.5188999 L16.9617714,2.15413638 C16.9732723,1.49309753 16.4458986,0.947820986 15.7853642,0.93625365 L11.483151,0.86091293 Z" id="Line-Copy-18" fill-rule="nonzero" transform="translate(13.514570, 7.777882) rotate(-3.000000) translate(-13.514570, -7.777882) "></path>
                                            <path d="M0,12.1092543 C0,10.9881762 0.903153363,10.0793629 2.03164602,10.0793629 L10.5265344,10.0793629 C11.6485815,10.0793629 12.5601595,10.9959262 12.5625556,12.1055399 L12.5642082,12.8708743 C12.5653945,13.4202937 12.119113,13.877132 11.5592408,13.8914602 L2.01900254,14.135614 C0.903938226,14.1641507 0,13.2756034 0,12.157393 L0,12.1092543 Z" id="Rectangle-7-Copy-15"></path>
                                        </g>
                                        <g id="Group-12-Copy-10" transform="translate(100.627382, 158.961138) scale(-1, 1) translate(-100.627382, -158.961138) translate(91.627382, 151.461138)" fill="#000000">
                                            <path d="M11.483151,0.86091293 C10.8219383,0.849333717 10.2765358,1.37930022 10.2650953,2.03686362 L10.0673685,13.4016271 C10.0558676,14.062666 10.5832413,14.6079425 11.2437758,14.6195099 L15.5459889,14.6948506 C16.2072016,14.7064298 16.7526042,14.1764633 16.7640446,13.5188999 L16.9617714,2.15413638 C16.9732723,1.49309753 16.4458986,0.947820986 15.7853642,0.93625365 L11.483151,0.86091293 Z" id="Line-Copy-18" fill-rule="nonzero" transform="translate(13.514570, 7.777882) rotate(-3.000000) translate(-13.514570, -7.777882) "></path>
                                            <path d="M0,12.1092543 C0,10.9881762 0.903153363,10.0793629 2.03164602,10.0793629 L10.5265344,10.0793629 C11.6485815,10.0793629 12.5601595,10.9959262 12.5625556,12.1055399 L12.5642082,12.8708743 C12.5653945,13.4202937 12.119113,13.877132 11.5592408,13.8914602 L2.01900254,14.135614 C0.903938226,14.1641507 0,13.2756034 0,12.157393 L0,12.1092543 Z" id="Rectangle-7-Copy-15"></path>
                                        </g>
                                        <path d="M32.7115204,108.123038 L40.6346739,111.441149 C40.6346739,111.441149 36.2390716,80.6292508 28.5976273,73.626174 C20.956183,66.6230972 6.33939182,76.5722683 8.92565187,82.3811035 C10.4613255,85.830283 15.8216891,101.049802 15.8216891,101.049802 L23.397795,104.222574 L22.0950332,98.5612596 L23.7265418,98.1833657 L25.2995332,105.018997 L27.1037886,105.774595 L25.4438813,98.5612596 L27.0753899,98.1833657 L29.0055268,106.571017 L30.8097822,107.326615 L28.7927294,98.5612596 L30.424238,98.1833657 L32.7115204,108.123038 Z" id="Combined-Shape-Copy-13" fill="#000000" transform="translate(24.628768, 91.331229) scale(-1, 1) rotate(-109.000000) translate(-24.628768, -91.331229) "></path>
                                        <path d="M127.811657,124.563616 L135.734811,127.881727 C135.734811,127.881727 131.339209,97.0698291 123.697764,90.0667523 C116.05632,83.0636755 101.439529,93.0128467 104.025789,98.8216818 C105.561463,102.270861 110.921826,117.490381 110.921826,117.490381 L118.497932,120.663153 L117.19517,115.001838 L118.826679,114.623944 L120.39967,121.459575 L122.203926,122.215173 L120.544018,115.001838 L122.175527,114.623944 L124.105664,123.011596 L125.909919,123.767194 L123.892866,115.001838 L125.524375,114.623944 L127.811657,124.563616 Z" id="Combined-Shape-Copy-4" fill="#000000" transform="translate(119.728905, 107.771807) rotate(55.000000) translate(-119.728905, -107.771807) "></path>
                                        <path d="M37.719973,65.5577199 C33.9612761,41.5014555 50.6431178,22 74.9981289,22 L87.2958146,22 C111.642668,22 128.486403,41.5242642 124.918299,65.6022447 L112.498867,149.41003 L81.3910298,156.417802 L50.8215674,149.41003 L37.719973,65.5577199 Z M84.1615192,20.2814155 C84.0786975,20.2138557 83.9183387,20.0803197 83.6915831,19.8870853 C83.3108132,19.5626045 82.8857973,19.1908866 82.4277015,18.7782509 C81.1187391,17.5991861 79.8099311,16.3312222 78.5912386,15.0262004 C77.1896348,13.5253101 76.0005597,12.0733032 75.0928851,10.7146 C72.4195345,6.71284638 72.4980044,4.34042504 75.8444177,3.26285763 C80.0408588,1.91157563 82.7496639,3.14540032 83.5151674,5.57853085 C83.7867143,6.44163478 83.6907156,7.25164157 83.3677631,7.62337062 C83.0970213,7.93500348 82.5812755,7.95802727 81.6568355,7.40991482 C81.1380137,7.10229863 80.4681659,7.27370462 80.1606886,7.7927608 C79.8532112,8.31181699 80.0245398,8.98196735 80.5433617,9.28958354 C82.2992285,10.3306597 83.9743302,10.2558802 85.0161268,9.05673752 C85.8912552,8.04943553 86.0803076,6.45427264 85.5983929,4.92252106 C84.4536009,1.28383315 80.4811577,-0.525561907 75.1752831,1.1829651 C70.0532381,2.83229773 69.9186484,6.9014171 73.2771091,11.9287158 C74.2580716,13.397124 75.5191241,14.9370243 76.9953711,16.5178452 C78.260872,17.8729913 79.6136998,19.1836012 80.9663733,20.4020394 C81.4398501,20.8285297 81.8798658,21.2133665 82.2754063,21.5504343 C82.514437,21.7541291 82.6867827,21.8976471 82.7814033,21.9748316 C83.2488162,22.3561122 83.9366786,22.2861171 84.317787,21.8184931 C84.6988955,21.3508692 84.628932,20.6626961 84.1615192,20.2814155 Z" id="Combined-Shape" fill="#000000"></path>
                                        <g id="Combined-Shape-Copy">
                                            <use fill="#CF0019" fill-rule="evenodd" xlink:href="#path-2"></use>
                                            <path stroke="#000000" stroke-width="1" d="M44.3288559,103.25345 L65.0330432,158.185501 L97.3612968,158.101363 L118.594108,101.991538 L81.4888166,111.493367 L44.3288559,103.25345 Z"></path>
                                        </g>
                                        <path d="M117,102.534059 L121,88.5340585" id="Line" stroke="#CF0019" stroke-width="2" stroke-linecap="square"></path>
                                        <path d="M47,106.534059 L43,91.5340585" id="Line-Copy-11" stroke="#CF0019" stroke-width="2" stroke-linecap="square"></path>
                                        <g id="Group" transform="translate(45.762665, 44.678567)">
                                            <g id="Group-3" transform="translate(37.073933, 0.000000)">
                                                <path d="M16.4444799,23.4464324 C24.0092225,23.4464324 30.1416581,17.3041674 30.1416581,9.72729954 C30.1416581,2.15043167 2.74730181,9.72729954 2.74730181,9.72729954 C2.74730181,9.72729954 8.87973734,23.4464324 16.4444799,23.4464324 Z" id="Oval-3-Copy-4" fill="#FFFFFF" transform="translate(16.444480, 14.903118) rotate(-30.000000) translate(-16.444480, -14.903118) "></path>
                                                <ellipse id="Oval-3-Copy-5" fill="#000000" cx="9.84941008" cy="13.68889" rx="4.4026644" ry="4.40972128"></ellipse>
                                            </g>
                                            <g id="Group-3-Copy" transform="translate(17.225084, 15.000000) scale(-1, 1) translate(-17.225084, -15.000000) translate(0.725084, 0.000000)">
                                                <path d="M16.4444799,23.4464324 C24.0092225,23.4464324 30.1416581,17.3041674 30.1416581,9.72729954 C30.1416581,2.15043167 2.74730181,9.72729954 2.74730181,9.72729954 C2.74730181,9.72729954 8.87973734,23.4464324 16.4444799,23.4464324 Z" id="Oval-3-Copy-4" fill="#FFFFFF" transform="translate(16.444480, 14.903118) rotate(-30.000000) translate(-16.444480, -14.903118) "></path>
                                                <ellipse id="Oval-3-Copy-5" fill="#000000" cx="9.84941008" cy="13.68889" rx="4.4026644" ry="4.40972128"></ellipse>
                                            </g>
                                        </g>
                                        <path d="M74.0052296,73.2306668 C74.0052296,72.1218489 74.9027852,71.2229744 76.0063849,71.2229744 L87.0738908,71.2229744 C88.1790984,71.2229744 88.7902406,72.0723932 88.4386716,73.1209308 L86.0818602,80.150007 C85.7304003,81.1982194 84.6042563,82.3637156 83.5819493,82.7474346 L75.868766,85.6425477 C74.8395633,86.0288549 74.0052296,85.4415312 74.0052296,84.3343265 L74.0052296,73.2306668 Z" id="Rectangle-4-Copy-7" fill="#F5A623" transform="translate(81.271627, 78.492146) rotate(-315.000000) translate(-81.271627, -78.492146) "></path>
                                    </g>
                                </g>
                            </g>
                        </g>
                    </g>
                </g>
            </g>
        </g>
    </g>
</svg>