<?xml version="1.0" encoding="UTF-8" standalone="no"?>
<svg width="37px" height="54px" viewBox="0 0 37 54" version="1.1" xmlns="http://www.w3.org/2000/svg" xmlns:xlink="http://www.w3.org/1999/xlink">
    <!-- Generator: Sketch 47.1 (45422) - http://www.bohemiancoding.com/sketch -->
    <title>noun_1148351_cc</title>
    <desc>Created with Sketch.</desc>
    <defs></defs>
    <g id="Page-1" stroke="none" stroke-width="1" fill="none" fill-rule="evenodd">
        <g id="Forge" transform="translate(-514.000000, -869.000000)" fill-rule="nonzero" fill="#FFFFFF">
            <g id="noun_1148351_cc" transform="translate(514.000000, 869.000000)">
                <path d="M36.994272,12.4129459 C36.9485632,12.2693442 36.9485632,12.2233917 36.9485632,12.2004154 C36.9120447,12.153309 36.8719278,12.1091372 36.8285775,12.0683018 C36.7866696,11.9603617 36.7388282,11.902646 36.6857374,11.8500272 L25.2585298,0.361890732 C25.2061901,0.30851685 25.1487805,0.260420403 25.0871217,0.218289026 C24.9482249,0.141887323 24.8985717,0.115008426 24.8471503,0.0919195243 L24.6528878,0.00575850067 C24.5768978,-0.00191950022 24.5003336,-0.00191950022 24.4243436,0.00575850067 L6.85632458,0.00575850067 C3.06968107,0.00575850067 2.18228213e-15,3.09180684 0,6.89864039 L0,47.1071181 C4.36456427e-15,50.9139517 3.06968107,54 6.85632458,54 L18.7107398,54 C19.3418471,54 19.8534606,53.4856586 19.8534606,52.8511864 C19.8534606,52.2167141 19.3418471,51.7023727 18.7107398,51.7023727 L7.28353221,51.7023727 C4.7591032,51.7023727 2.71264915,49.6450071 2.71264915,47.1071181 L2.71264915,6.89864039 C2.71264915,4.36075136 4.7591032,2.3033858 7.28353221,2.3033858 L23.2816229,2.3033858 L23.2585298,13.7915223 L34.7088305,13.7915223 L34.7088305,35.6189816 C34.7088305,36.2534539 35.220444,36.7677953 35.8515513,36.7677953 C36.4826585,36.7677953 36.994272,36.2534539 36.994272,35.6189816 L36.994272,12.6427086 C37.0019093,12.5663135 37.0019093,12.4893411 36.994272,12.4129459 Z" id="Shape"></path>
                <path d="M35.8333333,46.4166667 L31.1666667,46.4166667 L31.1666667,42.0833333 C31.1666667,41.4850249 30.6443322,41 30,41 C29.3556678,41 28.8333333,41.4850249 28.8333333,42.0833333 L28.8333333,46.4166667 L24.1666667,46.4166667 C23.5223345,46.4166667 23,46.9016915 23,47.5 C23,48.0983085 23.5223345,48.5833333 24.1666667,48.5833333 L28.8333333,48.5833333 L28.8333333,52.9166667 C28.8333333,53.5149751 29.3556678,54 30,54 C30.6443322,54 31.1666667,53.5149751 31.1666667,52.9166667 L31.1666667,48.5833333 L35.8333333,48.5833333 C36.4776655,48.5833333 37,48.0983085 37,47.5 C37,46.9016915 36.4776655,46.4166667 35.8333333,46.4166667 Z" id="Shape"></path>
            </g>
        </g>
    </g>
</svg>