<?xml version="1.0" encoding="UTF-8" standalone="no"?>
<svg width="45px" height="45px" viewBox="0 0 45 45" version="1.1" xmlns="http://www.w3.org/2000/svg" xmlns:xlink="http://www.w3.org/1999/xlink">
    <!-- Generator: Sketch 47.1 (45422) - http://www.bohemiancoding.com/sketch -->
    <title>noun_975000_cc</title>
    <desc>Created with Sketch.</desc>
    <defs></defs>
    <g id="Page-1" stroke="none" stroke-width="1" fill="none" fill-rule="evenodd">
        <g id="Forge" transform="translate(-1123.000000, -881.000000)" fill-rule="nonzero" fill="#FFFFFF">
            <g id="noun_975000_cc" transform="translate(1123.000000, 881.000000)">
                <path d="M43.5028159,21.9039201 L36.7712041,18.2426918 C35.8000952,17.6810874 35.1664894,17.4641858 34.5139834,17.4623857 C34.4613329,17.4623857 34.3443319,17.4727358 34.1773803,17.492086 L34.1773803,4.06578219 C34.14543,2.65412128 33.4339735,2.13391726 31.3572044,1.78111453 C31.3572044,1.78111453 19.0212412,-0.00134924396 18.3916854,7.66470711e-07 C17.7396294,0.00180078038 17.1064736,0.218702457 16.1344647,0.779856794 L9.40330291,4.4415351 C8.26974251,5.1408405 7.90883919,6.53180125 7.90568916,7.12670585 L7.90568916,20.8680121 C6.15967314,21.1015639 2.81974248,21.6433681 2.81974248,21.6433681 C0.74387342,21.9957208 0.0324168885,22.5159248 1.65911149e-05,23.9275857 L1.65911149e-05,38.1157454 C-0.0031334378,39.236254 0.442370652,40.0908106 1.25102808,40.519214 L8.82774763,44.5975955 C8.82774763,44.5975955 9.90640753,45.1285996 11.5349725,44.9706484 L24.2219389,43.239035 C25.1934979,43.113034 25.9855051,42.3741283 26.2078072,41.4628713 L27.5560195,42.1977269 C27.5560195,42.1977269 28.6346795,42.729181 30.2636944,42.5707798 L42.9506609,40.8391664 C44.1049215,40.6888653 45.0049297,39.6754574 44.9999797,38.5337986 L44.9999797,24.5895408 C44.9977297,23.9937362 44.6363763,22.6032255 43.5028159,21.9039201 Z M9.41185299,7.13210589 C9.413203,6.8612038 9.62875498,6.68165241 9.90730754,6.67850239 C9.99865838,6.67760238 22.6271243,8.32776514 22.6271243,8.32776514 C23.0195279,8.38131555 23.361981,8.75661845 23.359731,9.13372137 L23.3975314,9.13912141 L23.3975314,23.1720299 C23.3961814,23.4393319 23.2080796,23.6224834 22.9295271,23.6224834 C22.9007268,23.6224834 10.1539098,21.8850199 10.1539098,21.8850199 C9.75430613,21.8332695 9.41005297,21.4561666 9.41185299,21.0777137 L9.41185299,7.13210589 Z M24.7655439,40.9395172 C24.7673439,41.3179701 24.4226408,41.695073 24.0234871,41.7468234 C24.0234871,41.7468234 11.2766701,43.4842869 11.2478698,43.4842869 C10.9693173,43.4842869 10.7812156,43.3011355 10.7798655,43.0342834 L10.7798655,29.0009249 L10.8172159,28.9950749 C10.8154159,28.618422 11.157419,28.2431191 11.5502726,28.1891187 C11.5502726,28.1891187 24.1787385,26.5389559 24.2700894,26.5403059 C24.5486419,26.5434559 24.7641939,26.7230073 24.7655439,26.9939094 L24.7655439,40.9395172 L24.7655439,40.9395172 Z M43.4947159,38.5396487 C43.4965159,38.9181016 43.1518127,39.2952045 42.752209,39.3474049 C42.752209,39.3474049 30.005392,41.0844183 29.9765918,41.0844183 C29.6984892,41.0844183 29.5103875,40.9012669 29.5085875,40.6339648 L29.5085875,26.6010564 L29.5463878,26.5956563 C29.5445878,26.2185534 29.8865909,25.8432505 30.2794445,25.7897001 C30.2794445,25.7897001 42.9079105,24.1390873 42.9992613,24.1404374 C43.2778139,24.1435874 43.4933658,24.3231388 43.4951659,24.5940409 L43.4951659,38.5396487 L43.4947159,38.5396487 Z" id="Shape"></path>
            </g>
        </g>
    </g>
</svg>